<?xml version="1.0" standalone="no"?>
<!DOCTYPE svg PUBLIC "-//W3C//DTD SVG 20010904//EN"
 "http://www.w3.org/TR/2001/REC-SVG-20010904/DTD/svg10.dtd">
<svg version="1.0" xmlns="http://www.w3.org/2000/svg"
 width="200pt" height="40pt" viewBox="0 0 634.000000 126.000000"
 preserveAspectRatio="xMidYMid meet">
<metadata>
Created by potrace 1.16, written by Peter Selinger 2001-2019
</metadata>
<g transform="translate(0.000000,126.000000) scale(0.100000,-0.100000)"
fill="#000000" stroke="none">
<path d="M1783 1045 c-33 -14 -38 -25 -61 -135 -16 -73 -129 -502 -141 -533
-15 -38 -14 -53 5 -71 23 -24 68 -20 95 8 26 25 35 47 68 162 18 61 28 78 75
123 76 71 136 93 136 49 0 -13 -9 -56 -20 -96 -11 -40 -22 -113 -26 -161 -6
-74 -4 -89 10 -104 45 -44 126 9 126 82 0 22 11 106 25 187 14 81 23 160 20
176 -16 70 -121 91 -222 43 -29 -13 -53 -21 -53 -17 0 4 11 48 25 97 14 50 25
111 25 138 0 42 -3 49 -26 57 -14 6 -26 10 -27 10 -1 -1 -16 -7 -34 -15z"/>
<path d="M5163 1045 c-33 -14 -38 -25 -61 -135 -16 -73 -129 -502 -141 -533
-15 -38 -14 -53 5 -71 23 -24 68 -20 95 8 26 25 35 47 68 162 18 61 28 78 75
123 76 71 136 93 136 49 0 -13 -9 -56 -20 -96 -11 -40 -22 -113 -26 -161 -6
-74 -4 -89 10 -104 45 -44 126 9 126 82 0 22 11 106 25 187 14 81 23 160 20
176 -16 70 -121 91 -222 43 -29 -13 -53 -21 -53 -17 0 4 11 48 25 97 14 50 25
111 25 138 0 42 -3 49 -26 57 -14 6 -26 10 -27 10 -1 -1 -16 -7 -34 -15z"/>
<path d="M1176 1008 c-34 -46 -192 -668 -176 -697 11 -21 12 -21 220 -24 81
-2 153 30 220 97 69 68 94 125 98 221 2 69 -1 86 -20 119 -44 75 -143 105
-238 71 -24 -8 -45 -13 -48 -10 -3 2 8 54 23 114 15 60 25 116 22 125 -4 10
-18 16 -41 16 -28 0 -40 -7 -60 -32z m213 -354 c68 -87 -27 -244 -147 -244
-41 0 -102 17 -102 28 0 4 11 48 23 97 l23 90 50 27 c67 37 125 38 153 2z"/>
<path d="M4752 1011 c-146 -6 -155 -7 -173 -30 -21 -26 -25 -71 -7 -89 7 -7
42 -12 85 -12 40 0 73 -3 73 -7 0 -29 -104 -379 -132 -445 -24 -56 -45 -61
-99 -25 -29 19 -35 30 -39 72 -4 42 -9 51 -31 59 -64 22 -111 -21 -112 -103
-1 -65 33 -117 102 -154 62 -34 139 -39 190 -13 77 40 171 254 251 574 l11 42
63 0 c52 0 66 4 83 23 28 30 36 60 20 81 -13 18 -76 37 -112 34 -11 -1 -89 -4
-173 -7z"/>
<path d="M2361 997 c-37 -19 -65 -61 -58 -89 14 -53 90 -56 132 -6 30 36 32
61 5 88 -23 23 -45 25 -79 7z"/>
<path d="M788 947 c-57 -52 -246 -260 -294 -323 -14 -18 -41 -42 -60 -53 -19
-11 -34 -27 -34 -35 0 -8 -25 -52 -55 -96 -30 -44 -55 -89 -55 -99 0 -37 51
-62 94 -45 8 3 45 46 81 94 73 98 54 89 226 105 l66 6 6 -74 c7 -95 27 -137
66 -137 16 0 39 8 51 18 21 17 21 22 24 340 2 269 1 326 -11 338 -24 24 -46
16 -105 -39z"/>
<path d="M2523 801 c-26 -16 -33 -29 -43 -78 -7 -32 -29 -113 -50 -180 -45
-144 -58 -226 -40 -248 18 -22 76 -19 100 5 11 11 22 32 25 47 28 137 69 220
142 283 41 36 82 55 95 42 5 -5 -2 -45 -16 -93 -13 -46 -29 -128 -36 -182 -14
-112 -9 -127 47 -127 52 0 80 34 87 106 3 33 15 102 26 154 33 156 34 183 15
223 -30 64 -111 72 -204 21 -24 -13 -45 -24 -47 -24 -2 0 -4 11 -4 25 0 24
-24 45 -52 45 -7 0 -27 -9 -45 -19z"/>
<path d="M2294 786 c-17 -8 -34 -22 -38 -32 -21 -53 -70 -222 -91 -317 -29
-127 -25 -147 31 -147 53 0 79 32 99 126 10 43 33 131 51 194 42 141 43 167 8
180 -14 6 -26 10 -27 10 -1 -1 -16 -7 -33 -14z"/>
<path d="M3515 775 c-14 -13 -25 -36 -25 -50 0 -65 63 -411 77 -427 25 -28 62
-22 97 15 45 49 275 381 289 418 11 28 10 33 -12 50 -52 43 -86 17 -193 -148
-44 -68 -82 -122 -83 -121 -2 2 -11 57 -20 123 -9 66 -23 130 -31 143 -20 30
-67 29 -99 -3z"/>
<path d="M3163 779 c-56 -16 -154 -91 -194 -149 -69 -98 -86 -233 -38 -294 46
-58 139 -74 237 -42 53 18 54 18 76 -3 28 -27 56 -27 90 0 26 21 27 23 20 103
-7 90 10 181 47 261 29 61 21 87 -36 114 -48 23 -142 27 -202 10z m99 -105 c4
-3 -1 -25 -9 -50 -8 -24 -20 -79 -27 -121 l-12 -78 -46 -19 c-117 -48 -166 51
-85 171 42 62 154 123 179 97z"/>
<path d="M5773 779 c-56 -16 -154 -91 -194 -149 -69 -98 -86 -233 -38 -294 46
-58 139 -74 237 -42 53 18 54 18 76 -3 28 -27 56 -27 90 0 26 21 27 23 20 103
-7 90 10 181 47 261 29 61 21 87 -36 114 -48 23 -142 27 -202 10z m99 -105 c4
-3 -1 -25 -9 -50 -8 -24 -20 -79 -27 -121 l-12 -78 -46 -19 c-117 -48 -166 51
-85 171 42 62 154 123 179 97z"/>
</g>
</svg>
